<svg width="34" height="34" viewBox="0 0 34 34" fill="none" xmlns="http://www.w3.org/2000/svg">
<g clip-path="url(#clip0_4_2801)">
<rect width="34" height="34" rx="6.21951" fill="white"/>
<g filter="url(#filter0_d_4_2801)">
<path d="M5.39026 10.0291C5.39026 7.46716 7.46715 5.39026 10.0291 5.39026H23.9334C28.0225 5.39026 30.1114 10.2968 27.2772 13.2444L13.373 27.7048C10.478 30.7156 5.39026 28.6663 5.39026 24.4896V10.0291Z" fill="#37A0EA"/>
</g>
<g filter="url(#filter1_d_4_2801)">
<path d="M24.0488 20.3171C24.0488 16.4241 20.8929 13.2683 17 13.2683H16.394C13.7517 13.2683 11.6097 15.4103 11.6097 18.0525V25.7073C11.6097 26.6233 12.3523 27.3658 13.2683 27.3658H17C20.8929 27.3658 24.0488 24.21 24.0488 20.3171Z" fill="#76DEFC"/>
<path d="M16.5854 11.8171C16.5854 10.0996 15.1931 8.70731 13.4756 8.70731C11.7582 8.70731 10.3659 10.0996 10.3659 11.8171V24.2561C10.3659 25.9736 11.7582 27.3658 13.4756 27.3658C15.1931 27.3658 16.5854 25.9736 16.5854 24.2561V11.8171Z" fill="#76DEFC"/>
</g>
</g>
<defs>
<filter id="filter0_d_4_2801" x="4.56099" y="4.56099" width="26.5083" height="27.0646" filterUnits="userSpaceOnUse" color-interpolation-filters="sRGB">
<feFlood flood-opacity="0" result="BackgroundImageFix"/>
<feColorMatrix in="SourceAlpha" type="matrix" values="0 0 0 0 0 0 0 0 0 0 0 0 0 0 0 0 0 0 127 0" result="hardAlpha"/>
<feOffset dx="0.829268" dy="0.829268"/>
<feGaussianBlur stdDeviation="0.829268"/>
<feComposite in2="hardAlpha" operator="out"/>
<feColorMatrix type="matrix" values="0 0 0 0 0 0 0 0 0 0 0 0 0 0 0 0 0 0 0.05 0"/>
<feBlend mode="normal" in2="BackgroundImageFix" result="effect1_dropShadow_4_2801"/>
<feBlend mode="normal" in="SourceGraphic" in2="effect1_dropShadow_4_2801" result="shape"/>
</filter>
<filter id="filter1_d_4_2801" x="7.8781" y="6.2195" width="16.9999" height="21.9756" filterUnits="userSpaceOnUse" color-interpolation-filters="sRGB">
<feFlood flood-opacity="0" result="BackgroundImageFix"/>
<feColorMatrix in="SourceAlpha" type="matrix" values="0 0 0 0 0 0 0 0 0 0 0 0 0 0 0 0 0 0 127 0" result="hardAlpha"/>
<feOffset dx="-0.829268" dy="-0.829268"/>
<feGaussianBlur stdDeviation="0.829268"/>
<feComposite in2="hardAlpha" operator="out"/>
<feColorMatrix type="matrix" values="0 0 0 0 0 0 0 0 0 0 0 0 0 0 0 0 0 0 0.05 0"/>
<feBlend mode="normal" in2="BackgroundImageFix" result="effect1_dropShadow_4_2801"/>
<feBlend mode="normal" in="SourceGraphic" in2="effect1_dropShadow_4_2801" result="shape"/>
</filter>
<clipPath id="clip0_4_2801">
<rect width="34" height="34" rx="6.21951" fill="white"/>
</clipPath>
</defs>
</svg>
