<svg width="34" height="24" viewBox="0 0 34 24" fill="none" xmlns="http://www.w3.org/2000/svg">
<path d="M8.4125 24C6.2125 24 4.34375 23.2312 2.80625 21.6937C1.26875 20.1562 0.5 18.2875 0.5 16.0875C0.5 14.1375 1.125 12.425 2.375 10.95C3.625 9.47498 5.2125 8.58748 7.1375 8.28748C7.6375 5.86248 8.8125 3.88123 10.6625 2.34373C12.5125 0.806226 14.65 0.0374756 17.075 0.0374756C19.875 0.0374756 22.2375 1.05623 24.1625 3.09373C26.0875 5.13123 27.05 7.57498 27.05 10.425V11.325C28.85 11.275 30.375 11.8562 31.625 13.0687C32.875 14.2812 33.5 15.8125 33.5 17.6625C33.5 19.3875 32.875 20.875 31.625 22.125C30.375 23.375 28.8875 24 27.1625 24H8.4125Z" fill="white"/>
</svg>
