<svg width="20" height="19" viewBox="0 0 20 19" fill="none" xmlns="http://www.w3.org/2000/svg">
<path d="M8.19477 18.9792L7.72081 15.9932C7.42064 15.8826 7.10467 15.7326 6.7729 15.543C6.44113 15.3534 6.14885 15.1559 5.89607 14.9505L3.09972 16.2302L0.895813 12.3438L3.45519 10.4716C3.42359 10.3294 3.40384 10.1675 3.39594 9.98581C3.38804 9.80412 3.38409 9.64219 3.38409 9.5C3.38409 9.35781 3.38804 9.19588 3.39594 9.01419C3.40384 8.83251 3.42359 8.67057 3.45519 8.52839L0.895813 6.65625L3.09972 2.76979L5.89607 4.04948C6.14885 3.8441 6.44113 3.64661 6.7729 3.45703C7.10467 3.26745 7.42064 3.12526 7.72081 3.03047L8.19477 0.020833H12.5552L13.0291 3.00677C13.3293 3.11736 13.6492 3.2635 13.9889 3.44518C14.3286 3.62687 14.6169 3.8283 14.8539 4.04948L17.6502 2.76979L19.8541 6.65625L17.2948 8.48099C17.3264 8.63898 17.3461 8.80881 17.354 8.9905C17.3619 9.17218 17.3659 9.34201 17.3659 9.5C17.3659 9.65799 17.3619 9.82387 17.354 9.99766C17.3461 10.1714 17.3264 10.3373 17.2948 10.4953L19.8541 12.3438L17.6502 16.2302L14.8539 14.9505C14.6011 15.1559 14.3128 15.3573 13.9889 15.5548C13.665 15.7523 13.3451 15.8984 13.0291 15.9932L12.5552 18.9792H8.19477ZM10.375 12.5807C11.2281 12.5807 11.9548 12.2806 12.5552 11.6802C13.1555 11.0799 13.4557 10.3531 13.4557 9.5C13.4557 8.64688 13.1555 7.92014 12.5552 7.31979C11.9548 6.71944 11.2281 6.41927 10.375 6.41927C9.52186 6.41927 8.79512 6.71944 8.19477 7.31979C7.59442 7.92014 7.29425 8.64688 7.29425 9.5C7.29425 10.3531 7.59442 11.0799 8.19477 11.6802C8.79512 12.2806 9.52186 12.5807 10.375 12.5807Z" fill="#000"/>
</svg>
