<svg width="20" height="19" viewBox="0 0 20 19" fill="none" xmlns="http://www.w3.org/2000/svg">
<path d="M10.3987 18.9792C9.10324 18.9792 7.87884 18.7303 6.72555 18.2327C5.57225 17.735 4.56509 17.0596 3.70406 16.2065C2.84304 15.3534 2.1637 14.3502 1.66604 13.1969C1.16838 12.0436 0.919556 10.8192 0.919556 9.5237C0.919556 7.02752 1.76083 4.87891 3.44338 3.07787C5.12594 1.27682 7.2153 0.281511 9.71148 0.0919276V2.50912C7.89464 2.6829 6.37798 3.43728 5.16148 4.77227C3.94499 6.10725 3.33674 7.69106 3.33674 9.5237C3.33674 11.4827 4.02398 13.1455 5.39846 14.5121C6.77294 15.8787 8.4397 16.562 10.3987 16.562C11.5362 16.562 12.6105 16.3053 13.6216 15.7918C14.6328 15.2783 15.4938 14.5556 16.2047 13.6234L18.2901 14.832C17.3738 16.1433 16.2245 17.1623 14.8421 17.8891C13.4597 18.6158 11.9786 18.9792 10.3987 18.9792ZM18.9774 13.5523L16.892 12.3911C17.0815 11.9014 17.2237 11.4156 17.3185 10.9337C17.4133 10.4519 17.4607 9.97396 17.4607 9.5C17.4607 7.66736 16.8564 6.0796 15.6478 4.73672C14.4392 3.39384 12.9344 2.6434 11.1334 2.48542V0.0682297C13.6137 0.242014 15.6913 1.22548 17.3659 3.01862C19.0406 4.81176 19.8779 6.94063 19.8779 9.40521C19.8779 10.1161 19.8028 10.8152 19.6528 11.5025C19.5027 12.1897 19.2775 12.873 18.9774 13.5523Z" fill="#000"/>
</svg>
