<svg width="18" height="19" viewBox="0 0 18 19" fill="none" xmlns="http://www.w3.org/2000/svg">
<path d="M10.5469 16.1354C10.8155 16.1354 11.0406 16.0446 11.2223 15.8629C11.4039 15.6812 11.4948 15.4561 11.4948 15.1875C11.4948 14.9189 11.4039 14.6938 11.2223 14.5121C11.0406 14.3304 10.8155 14.2396 10.5469 14.2396C10.2783 14.2396 10.0532 14.3304 9.87148 14.5121C9.6898 14.6938 9.59896 14.9189 9.59896 15.1875C9.59896 15.4561 9.6898 15.6812 9.87148 15.8629C10.0532 16.0446 10.2783 16.1354 10.5469 16.1354ZM13.8646 16.1354C14.1332 16.1354 14.3583 16.0446 14.54 15.8629C14.7217 15.6812 14.8125 15.4561 14.8125 15.1875C14.8125 14.9189 14.7217 14.6938 14.54 14.5121C14.3583 14.3304 14.1332 14.2396 13.8646 14.2396C13.596 14.2396 13.3709 14.3304 13.1892 14.5121C13.0075 14.6938 12.9167 14.9189 12.9167 15.1875C12.9167 15.4561 13.0075 15.6812 13.1892 15.8629C13.3709 16.0446 13.596 16.1354 13.8646 16.1354ZM0.59375 10.6849V1.44272C0.59375 1.06355 0.735937 0.731781 1.02031 0.447406C1.30469 0.163031 1.63646 0.0208435 2.01562 0.0208435H16.2344C16.6135 0.0208435 16.9453 0.163031 17.2297 0.447406C17.5141 0.731781 17.6562 1.06355 17.6562 1.44272V10.6849H0.59375ZM2.01562 18.9792C1.63646 18.9792 1.30469 18.837 1.02031 18.5526C0.735937 18.2682 0.59375 17.9365 0.59375 17.5573V12.1068H17.6562V17.5573C17.6562 17.9365 17.5141 18.2682 17.2297 18.5526C16.9453 18.837 16.6135 18.9792 16.2344 18.9792H2.01562Z" fill="white"/>
</svg>
