<svg width="41" height="42" viewBox="0 0 41 42" fill="none" xmlns="http://www.w3.org/2000/svg">
<rect y="0.5" width="41" height="41" rx="5" fill="#60BBFB"/>
<path d="M29.2604 17.2604L24.2292 12.2292C23.8437 11.8437 23.3125 11.625 22.7604 11.625H13.2083C12.0625 11.625 11.125 12.5625 11.125 13.7083V28.2917C11.125 29.4375 12.0625 30.375 13.2083 30.375H27.7917C28.9375 30.375 29.875 29.4375 29.875 28.2917V18.7396C29.875 18.1875 29.6562 17.6562 29.2604 17.2604ZM15.2917 15.7917H22.5833V17.875H15.2917V15.7917ZM25.7083 26.2083H15.2917V24.125H25.7083V26.2083ZM25.7083 22.0417H15.2917V19.9583H25.7083V22.0417Z" fill="white"/>
</svg>
