<svg width="13" height="13" viewBox="0 0 13 13" fill="none" xmlns="http://www.w3.org/2000/svg">
<path d="M12.5436 12.6297C12.3483 12.825 12.0317 12.825 11.8365 12.6297L8.13587 8.92914C7.95039 8.74365 7.65483 8.7365 7.43548 8.88036C7.19387 9.03882 6.92894 9.17034 6.64069 9.27494C6.1967 9.43605 5.72425 9.51661 5.22334 9.51661C4.02154 9.51661 3.00442 9.09994 2.17199 8.26661C1.33956 7.43328 0.92334 6.42772 0.92334 5.24994C0.92334 4.07217 1.34001 3.06661 2.17334 2.23328C3.00667 1.39994 4.01501 0.983276 5.19834 0.983276C6.38167 0.983276 7.38723 1.39994 8.21501 2.23328C9.04278 3.06661 9.45667 4.073 9.45667 5.25244C9.45667 5.72855 9.3789 6.18883 9.22334 6.63328C9.11527 6.94206 8.96965 7.23743 8.78649 7.51939C8.64731 7.73366 8.66085 8.01975 8.8422 8.19972L12.5671 11.8964C12.7636 12.0914 12.7642 12.4091 12.5684 12.6048L12.5436 12.6297ZM5.20667 8.51661C6.10945 8.51661 6.87681 8.19717 7.50876 7.55828C8.1407 6.91939 8.45667 6.14994 8.45667 5.24994C8.45667 4.34994 8.1407 3.5805 7.50876 2.94161C6.87681 2.30272 6.10945 1.98328 5.20667 1.98328C4.29464 1.98328 3.51941 2.30272 2.88097 2.94161C2.24255 3.5805 1.92334 4.34994 1.92334 5.24994C1.92334 6.14994 2.24255 6.91939 2.88097 7.55828C3.51941 8.19717 4.29464 8.51661 5.20667 8.51661Z" fill="#757575" stroke="#757575" stroke-width="0.3"/>
</svg>
