<svg width="41" height="42" viewBox="0 0 41 42" fill="none" xmlns="http://www.w3.org/2000/svg">
<rect y="0.5" width="41" height="41" rx="5" fill="#FF8989"/>
<path d="M22.5834 10.5833H14.2604C13.1146 10.5833 12.1771 11.5104 12.1771 12.6667L12.1667 29.3333C12.1667 30.4792 13.1042 31.4167 14.25 31.4167H26.75C27.8959 31.4167 28.8334 30.4792 28.8334 29.3333V16.8333L22.5834 10.5833ZM21.5417 17.875V12.1458L27.2709 17.875H21.5417ZM22.5834 23.0833L24.6667 21.9792V26.2708L22.5834 25.1667V26.2083C22.5834 26.7813 22.1146 27.25 21.5417 27.25H17.375C16.8021 27.25 16.3334 26.7813 16.3334 26.2083V22.0417C16.3334 21.4688 16.8021 21 17.375 21H21.5417C22.1146 21 22.5834 21.4688 22.5834 22.0417V23.0833Z" fill="white"/>
</svg>
